<svg width="11" height="12" viewBox="0 0 11 12" fill="none" xmlns="http://www.w3.org/2000/svg">
<path d="M8.62223 0.899945C8.06892 0.270051 7.06872 0 5.78916 0H2.07554C1.94894 4.68195e-06 1.82649 0.0451158 1.73021 0.127223C1.63393 0.20933 1.57014 0.323047 1.5503 0.44793L0.00401264 10.2429C-0.0267225 10.436 0.123022 10.6109 0.319028 10.6109H2.61169L3.18748 6.96326L3.16961 7.07748C3.21063 6.81965 3.43141 6.62947 3.69286 6.62947H4.78233C6.92259 6.62947 8.59845 5.76122 9.08799 3.24953C9.10252 3.17525 9.11511 3.10295 9.12599 3.03231C9.0642 2.99963 9.0642 2.99963 9.12599 3.03231C9.27176 2.10397 9.12499 1.47205 8.62223 0.899945Z" fill="#27346A"/>
<path d="M4.06474 2.69789C4.12742 2.66808 4.19597 2.65264 4.26539 2.65268H7.17681C7.52157 2.65268 7.84313 2.67509 8.13698 2.72232C8.21921 2.73542 8.30101 2.75105 8.38227 2.7692C8.49744 2.79458 8.61128 2.82565 8.72337 2.86229C8.86784 2.91047 9.00237 2.96659 9.12603 3.03231C9.27176 2.10361 9.12499 1.47205 8.62223 0.899945C8.0686 0.270051 7.06872 0 5.78916 0H2.07522C1.81373 0 1.59128 0.190134 1.5503 0.44793L0.00401285 10.2425C-0.0267223 10.436 0.123022 10.6106 0.31871 10.6106H2.61169L3.80627 3.04453C3.81802 2.97016 3.84768 2.89975 3.8927 2.83937C3.93773 2.77899 3.99677 2.73044 4.06474 2.69789Z" fill="#27346A"/>
<path d="M9.08833 3.24945C8.59879 5.76078 6.92298 6.62939 4.78268 6.62939H3.69289C3.43144 6.62939 3.21062 6.81956 3.17 7.0774L2.45368 11.6128C2.42691 11.7819 2.5578 11.935 2.72902 11.935H4.66168C4.77239 11.935 4.87946 11.8955 4.96363 11.8237C5.04779 11.7519 5.10354 11.6524 5.12084 11.5432L5.13966 11.4448L5.50392 9.13909L5.52739 9.01166C5.54469 8.90245 5.60043 8.80299 5.68459 8.73116C5.76875 8.65933 5.87581 8.61985 5.98651 8.61981H6.27575C8.14793 8.61981 9.61389 7.86014 10.0423 5.66309C10.2211 4.74494 10.1286 3.97838 9.65554 3.43994C9.51207 3.27685 9.3339 3.14217 9.12633 3.03223C9.1151 3.10322 9.10291 3.17516 9.08833 3.24945Z" fill="#2790C3"/>
<path d="M8.61365 2.82849C8.53732 2.80623 8.46027 2.78652 8.38262 2.7694C8.30132 2.75154 8.21952 2.73602 8.13733 2.72283C7.84317 2.67528 7.52184 2.65283 7.17676 2.65283H4.2657C4.19623 2.65268 4.12763 2.66826 4.06505 2.6984C3.997 2.73085 3.9379 2.77937 3.89285 2.83977C3.84781 2.90017 3.81818 2.97063 3.80654 3.04504L3.18779 6.96346L3.16992 7.07768C3.21062 6.81984 3.43141 6.62967 3.6929 6.62967H4.78268C6.92294 6.62967 8.59876 5.76141 9.0883 3.24973C9.10287 3.17544 9.1151 3.10346 9.12634 3.03251C9.00237 2.96715 8.86819 2.91067 8.72368 2.8628C8.68722 2.85072 8.65055 2.83929 8.61369 2.82849" fill="#1F264F"/>
</svg>
