<svg width="18" height="12" viewBox="0 0 18 12" fill="none" xmlns="http://www.w3.org/2000/svg">
<path d="M1 11.9853C0.716667 11.9853 0.479333 11.8894 0.288 11.6977C0.0960001 11.5066 0 11.2695 0 10.9865C0 10.7036 0.0960001 10.4665 0.288 10.2754C0.479333 10.0837 0.716667 9.98777 1 9.98777H17C17.2833 9.98777 17.5207 10.0837 17.712 10.2754C17.904 10.4665 18 10.7036 18 10.9865C18 11.2695 17.904 11.5066 17.712 11.6977C17.5207 11.8894 17.2833 11.9853 17 11.9853H1ZM1 6.99144C0.716667 6.99144 0.479333 6.89556 0.288 6.70379C0.0960001 6.51269 0 6.27565 0 5.99266C0 5.70967 0.0960001 5.4723 0.288 5.28053C0.479333 5.08943 0.716667 4.99388 1 4.99388H17C17.2833 4.99388 17.5207 5.08943 17.712 5.28053C17.904 5.4723 18 5.70967 18 5.99266C18 6.27565 17.904 6.51269 17.712 6.70379C17.5207 6.89556 17.2833 6.99144 17 6.99144H1ZM1 1.99755C0.716667 1.99755 0.479333 1.902 0.288 1.7109C0.0960001 1.51914 0 1.28176 0 0.998777C0 0.71579 0.0960001 0.478414 0.288 0.286649C0.479333 0.0955498 0.716667 0 1 0H17C17.2833 0 17.5207 0.0955498 17.712 0.286649C17.904 0.478414 18 0.71579 18 0.998777C18 1.28176 17.904 1.51914 17.712 1.7109C17.5207 1.902 17.2833 1.99755 17 1.99755H1Z" fill="#DA6632"/>
</svg>
