<svg width="17" height="17" viewBox="0 0 17 17" fill="none" xmlns="http://www.w3.org/2000/svg">
<path d="M15.358 16.734L9.94886 11.3172C9.46591 11.7041 8.91051 12.0104 8.28267 12.2361C7.65483 12.4618 6.98674 12.5747 6.27841 12.5747C4.52367 12.5747 3.03875 11.9663 1.82364 10.7494C0.607879 9.53193 0 8.04457 0 6.28734C0 4.53011 0.607879 3.04275 1.82364 1.82526C3.03875 0.608421 4.52367 0 6.27841 0C8.03314 0 9.51839 0.608421 10.7341 1.82526C11.9493 3.04275 12.5568 4.53011 12.5568 6.28734C12.5568 6.99668 12.4441 7.66572 12.2187 8.29445C11.9934 8.92319 11.6875 9.47937 11.3011 9.96302L16.7344 15.404C16.9115 15.5813 17 15.799 17 16.0569C17 16.3148 16.9034 16.5405 16.7102 16.734C16.5331 16.9113 16.3078 17 16.0341 17C15.7604 17 15.535 16.9113 15.358 16.734ZM6.27841 10.6401C7.4858 10.6401 8.51223 10.2171 9.35773 9.37104C10.2026 8.52434 10.625 7.49644 10.625 6.28734C10.625 5.07824 10.2026 4.05034 9.35773 3.20364C8.51223 2.35759 7.4858 1.93457 6.27841 1.93457C5.07102 1.93457 4.04458 2.35759 3.19909 3.20364C2.35424 4.05034 1.93182 5.07824 1.93182 6.28734C1.93182 7.49644 2.35424 8.52434 3.19909 9.37104C4.04458 10.2171 5.07102 10.6401 6.27841 10.6401Z" fill="#DA6632"/>
</svg>
