<svg width="36" height="36" viewBox="0 0 36 36" fill="none" xmlns="http://www.w3.org/2000/svg">
<path d="M14.2335 0.00450019L15.327 0H20.673L21.768 0.00450019L23.139 0.0195008L23.7885 0.0300012L24.4155 0.0465019L25.02 0.0675028L25.602 0.0915038L26.163 0.123005L26.703 0.160507L27.2205 0.205509L27.72 0.255011C30.33 0.549023 32.1195 1.17905 33.4695 2.52911C34.8195 3.87916 35.4495 5.66724 35.7435 8.27884L35.7945 8.77837L35.838 9.29739L35.8755 9.83741L35.9055 10.3969L35.943 11.279L35.961 11.894L35.9805 12.86L35.994 14.2326L36 15.7027L35.9985 20.6724L35.994 21.7674L35.979 23.1385L35.9685 23.788L35.952 24.415L35.931 25.0195L35.907 25.6016L35.8755 26.1626L35.838 26.7026L35.793 27.2201L35.7435 27.7197C35.4495 30.3298 34.8195 32.1193 33.4695 33.4694C32.1195 34.8195 30.3315 35.4495 27.72 35.7435L27.2205 35.7945L26.7015 35.838L26.1615 35.8755L25.602 35.9055L24.72 35.943L24.105 35.961L23.139 35.9805L21.7665 35.994L20.2965 36L15.327 35.9985L14.232 35.994L12.861 35.979L12.2115 35.9685L11.5845 35.952L10.98 35.931L10.398 35.907L9.837 35.8755L9.297 35.838L8.7795 35.793L8.28 35.7435C5.67 35.4495 3.8805 34.8195 2.5305 33.4694C1.1805 32.1193 0.5505 30.3313 0.2565 27.7197L0.2055 27.2201L0.162 26.7011L0.1245 26.1611L0.0945 25.6016L0.057 24.7195L0.039 24.1045L0.0195 23.1385L0.006 21.7659L0 20.2958L0.0015 15.3261L0.006 14.2311L0.021 12.86L0.0315 12.2105L0.048 11.5835L0.069 10.979L0.093 10.3969L0.1245 9.83591L0.162 9.29589L0.207 8.77837L0.2565 8.27884C0.5505 5.66874 1.1805 3.87916 2.5305 2.52911C3.8805 1.17905 5.6685 0.549023 8.28 0.255011L8.7795 0.204008L9.2985 0.160507L9.8385 0.123005L10.398 0.0930039L11.28 0.0555023L11.895 0.0375016L12.861 0.0180007L14.2335 0.00450019ZM10.185 10.949H6.075C6.27 20.3093 10.95 25.9346 19.155 25.9346H19.62V20.5794C22.635 20.8794 24.915 23.0845 25.83 25.9346H30.09C28.92 21.6744 25.845 19.3193 23.925 18.4193C25.845 17.3092 28.545 14.6091 29.19 10.949H25.32C24.48 13.9191 21.99 16.6192 19.62 16.8742V10.949H15.75V21.3294C13.35 20.7294 10.32 17.8192 10.185 10.949Z" fill="url(#paint0_linear_207_377)"/>
<defs>
<linearGradient id="paint0_linear_207_377" x1="0" y1="18" x2="36" y2="18" gradientUnits="userSpaceOnUse">
<stop stop-color="#F83600"/>
<stop offset="1" stop-color="#FF9900"/>
</linearGradient>
</defs>
</svg>
